<?xml version="1.0" standalone="no"?>
<!DOCTYPE svg PUBLIC "-//W3C//DTD SVG 1.1//EN" "http://www.w3.org/Graphics/SVG/1.1/DTD/svg11.dtd" >
<svg xmlns="http://www.w3.org/2000/svg" xmlns:xlink="http://www.w3.org/1999/xlink" version="1.1">
<metadata></metadata>
<defs>
<font id="fs_elliot_proregular" horiz-adv-x="1193" >
<font-face units-per-em="2048" ascent="1638" descent="-410" />
<missing-glyph horiz-adv-x="491" />
<glyph horiz-adv-x="0" />
<glyph horiz-adv-x="682" />
<glyph horiz-adv-x="0" />
<glyph horiz-adv-x="0" />
<glyph unicode="&#xd;" horiz-adv-x="491" />
<glyph unicode=" "  horiz-adv-x="491" />
<glyph unicode="&#x09;" horiz-adv-x="491" />
<glyph unicode="&#xa0;" horiz-adv-x="491" />
<glyph unicode="!" horiz-adv-x="538" d="M173 33q-28 57 1 114.5t96 51.5q47 0 78 -31t31 -78t-31 -77.5t-78 -30.5q-69 -6 -97 51zM186 1376h166l-14 -948h-137z" />
<glyph unicode="&#x22;" horiz-adv-x="827" d="M143 1376h154l-14 -452h-125zM530 1376h154l-14 -452h-125z" />
<glyph unicode="#" horiz-adv-x="1335" d="M33 367v127h274l74 389h-250v127h275l71 379l127 -19l-67 -360h385l71 379l127 -19l-67 -360h250v-127h-275l-76 -389h250v-127h-274l-72 -379l-127 18l70 361h-385l-72 -379l-127 18l68 361h-250zM438 494h385l74 389h-385z" />
<glyph unicode="$" horiz-adv-x="1179" d="M164 166l39 129q216 -88 375 -88q125 0 198.5 53.5t73.5 145.5q0 49 -23 85.5t-62.5 59.5t-90.5 41t-107 34t-112 33.5t-107 43.5t-90.5 61t-62.5 90t-23 125q0 130 94 215t254 102v342h139v-340q139 -12 316 -79l-39 -132q-198 82 -334 82q-121 0 -192.5 -51.5 t-71.5 -138.5q0 -47 23 -82.5t62.5 -57.5t90.5 -39t107 -32.5t112 -33t107 -44t90.5 -62.5t62.5 -92.5t23 -129.5q0 -135 -97.5 -223.5t-259.5 -102.5v-342h-139v340q-170 9 -356 88z" />
<glyph unicode="%" horiz-adv-x="1769" d="M90 1032q0 160 96 264q95 105 246 105q150 0 244 -105q96 -104 96 -264q0 -159 -96 -266q-94 -102 -244 -102q-152 0 -246 102q-96 107 -96 266zM215 1032q0 -119 60 -193.5t157 -74.5q95 0 155 74t60 194q0 118 -60.5 193t-154.5 75t-155.5 -75t-61.5 -193zM326 33 l1032 1376l86 -66l-1032 -1376zM997 344q0 161 95 264q94 105 245 105t246 -105q96 -104 96 -264q0 -159 -96 -266q-95 -103 -246 -103q-150 0 -245 103t-95 266zM1122 344q0 -121 59 -194.5t156 -73.5t157 74.5t60 193.5q0 118 -61 193t-158 75q-94 0 -153.5 -75 t-59.5 -193z" />
<glyph unicode="&#x26;" horiz-adv-x="1312" d="M84 373q0 238 322 407q-94 98 -134.5 168t-40.5 148q0 135 99 220t254 85q146 0 241 -80q97 -82 97 -207q0 -105 -70 -189.5t-234 -174.5l351 -377q75 129 78 295h139q-6 -225 -121 -402l246 -266h-185l-165 178q-188 -203 -414 -203q-202 0 -334 111q-129 114 -129 287z M240 385q0 -124 91 -203.5t228 -79.5q86 0 167.5 44t147.5 126l-389 422q-245 -134 -245 -309zM381 1090q0 -57 36 -111.5t120 -138.5q127 67 183 128.5t56 131.5q0 78 -53 126t-139 48q-91 0 -147 -51t-56 -133z" />
<glyph unicode="'" horiz-adv-x="440" d="M143 1376h154l-14 -452h-125z" />
<glyph unicode="(" horiz-adv-x="690" d="M162 590q0 256 89.5 486t260.5 417l117 -80q-154 -159 -235 -379t-81 -444t81 -444t235 -379l-117 -80q-171 185 -260.5 416t-89.5 487z" />
<glyph unicode=")" horiz-adv-x="690" d="M63 -233q123 127 200.5 294.5t100.5 348t0 361t-100.5 348t-200.5 294.5l117 80q171 -185 260.5 -416t89.5 -487q0 -253 -90 -485t-260 -418z" />
<glyph unicode="*" horiz-adv-x="1007" d="M88 1034l37 109l319 -105v338h117v-338l322 105l35 -109l-322 -106l199 -273l-93 -67l-198 276l-199 -276l-92 67l197 273z" />
<glyph unicode="+" horiz-adv-x="1179" d="M106 520v139h414v414h139v-414h414v-139h-414v-414h-139v414h-414z" />
<glyph unicode="," horiz-adv-x="505" d="M98 -258q141 108 150 248q-45 -2 -77 28t-32 76q0 51 32 83t83 32q55 0 88 -43t33 -115q0 -112 -59 -210.5t-166 -168.5z" />
<glyph unicode="-" horiz-adv-x="655" d="M53 446v127h549v-127h-549z" />
<glyph unicode="." horiz-adv-x="505" d="M139 94q0 51 32 83t83 32q50 0 82.5 -32t32.5 -83q0 -49 -32.5 -80.5t-82.5 -31.5q-51 0 -83 30.5t-32 81.5z" />
<glyph unicode="/" horiz-adv-x="786" d="M18 -248l619 1718l131 -43l-618 -1718z" />
<glyph unicode="0" horiz-adv-x="1179" d="M84 688q0 330 135 520q138 193 371 193t368 -193q138 -190 138 -520q0 -328 -138 -522q-135 -191 -368 -191t-371 191q-135 194 -135 522zM240 688q0 -264 94.5 -419.5t255.5 -155.5t255.5 155.5t94.5 419.5t-94.5 420t-255.5 156t-255.5 -156t-94.5 -420z" />
<glyph unicode="1" horiz-adv-x="1179" d="M203 1122l440 254h137v-1376h-164v1212l-356 -204z" />
<glyph unicode="2" horiz-adv-x="1179" d="M113 0v104l538 539q168 168 168 334q0 127 -82 206t-211 79q-146 0 -338 -121l-65 123q223 137 434 137q186 0 305 -113t119 -291q0 -218 -197 -415l-448 -449h661v-133h-884z" />
<glyph unicode="3" horiz-adv-x="1179" d="M106 80l54 123q204 -94 377 -94q131 0 215 73.5t84 188.5q0 122 -98.5 197t-258.5 75h-84v123h84q146 0 237 71.5t91 184.5q0 109 -73.5 177.5t-194.5 68.5q-151 0 -346 -86l-54 123q215 96 424 96q178 0 293 -103q113 -101 113 -262q0 -118 -67.5 -205t-184.5 -122 q129 -35 206.5 -131.5t77.5 -221.5q0 -169 -122 -276q-120 -105 -316 -105q-232 0 -457 105z" />
<glyph unicode="4" horiz-adv-x="1179" d="M63 326v112l666 938h156v-923h211v-127h-211v-326h-152v326h-670zM223 453h510v718z" />
<glyph unicode="5" horiz-adv-x="1179" d="M129 96l64 123q169 -106 339 -106q149 0 239.5 81t90.5 212q0 140 -91 219.5t-255 79.5q-144 0 -301 -37v708h760v-133h-613v-440q113 22 201 22q211 0 336 -115t125 -307q0 -188 -133 -309q-131 -119 -346 -119t-416 121z" />
<glyph unicode="6" horiz-adv-x="1179" d="M123 608q0 379 147.5 586t417.5 207q173 0 336 -82l-55 -121q-150 72 -275 72q-199 0 -308.5 -156.5t-109.5 -449.5q44 98 145 156.5t226 58.5q196 0 316 -123q120 -120 120 -318q0 -201 -131 -332t-329 -131q-235 0 -367.5 166t-132.5 467zM293 461q0 -152 90 -256 q91 -99 233 -99q135 0 224 95q92 95 92 231q0 143 -86 231.5t-225 88.5q-138 0 -234 -84q-94 -82 -94 -207z" />
<glyph unicode="7" horiz-adv-x="1179" d="M133 1243v133h868v-104l-546 -1272h-170l538 1243h-690z" />
<glyph unicode="8" horiz-adv-x="1179" d="M106 354q0 130 83.5 223t234.5 128q-129 33 -207 122t-78 211q0 159 125 260q127 103 326 103q196 0 323 -103t127 -260q0 -122 -77.5 -211t-206.5 -122q151 -35 234 -128t83 -223q0 -169 -135 -274q-132 -105 -348 -105q-215 0 -350 105q-134 107 -134 274zM270 362 q0 -115 89.5 -187.5t230.5 -72.5t230 72.5t89 187.5q0 109 -84.5 182.5t-234.5 98.5q-151 -25 -235.5 -98.5t-84.5 -182.5zM297 1030q0 -103 79.5 -171.5t213.5 -92.5q136 24 214.5 92t78.5 172q0 105 -83 174.5t-210 69.5t-209 -70q-84 -72 -84 -174z" />
<glyph unicode="9" horiz-adv-x="1179" d="M96 938q0 199 131 330q133 133 330 133q235 0 367.5 -166t132.5 -467q0 -380 -147 -586.5t-418 -206.5q-173 0 -336 82l55 121q150 -72 274 -72q199 0 308 156.5t110 450.5q-44 -97 -145.5 -156t-225.5 -59q-195 0 -315 120q-121 124 -121 320zM248 944q0 -143 86 -231 t225 -88q136 0 232 84t96 206q0 151 -92 254q-88 101 -232 101q-134 0 -225 -94q-90 -96 -90 -232z" />
<glyph unicode=":" horiz-adv-x="538" d="M156 94q0 51 31.5 83t82.5 32q50 0 82.5 -32t32.5 -83q0 -49 -32.5 -80.5t-82.5 -31.5q-51 0 -82.5 30.5t-31.5 81.5zM156 899q0 51 31.5 83t82.5 32q50 0 82.5 -32t32.5 -83q0 -49 -32.5 -81t-82.5 -32q-51 0 -82.5 31.5t-31.5 81.5z" />
<glyph unicode=";" horiz-adv-x="538" d="M115 -258q140 107 149 248q-47 -2 -77.5 27.5t-30.5 76.5q0 51 31.5 83t82.5 32q55 0 88 -43t33 -115q0 -112 -59 -210.5t-166 -168.5zM156 899q0 51 31.5 83t82.5 32q50 0 82.5 -32t32.5 -83q0 -49 -32.5 -81t-82.5 -32q-51 0 -82.5 31.5t-31.5 81.5z" />
<glyph unicode="&#x3c;" horiz-adv-x="1179" d="M106 520v139l924 426l57 -133l-790 -362l790 -363l-57 -133z" />
<glyph unicode="=" horiz-adv-x="1179" d="M106 299v141h967v-141h-967zM106 739v142h967v-142h-967z" />
<glyph unicode="&#x3e;" horiz-adv-x="1179" d="M92 227l791 363l-791 362l58 133l923 -426v-139l-923 -426z" />
<glyph unicode="?" horiz-adv-x="942" d="M63 1276q183 125 386 125q173 0 284 -105q111 -102 111 -260q0 -70 -24 -133t-60.5 -107t-79.5 -90t-80.5 -83.5t-63.5 -84.5t-28 -94l-2 -16h-137v29q0 58 23 112.5t57.5 93.5t75 82.5t75 81t57.5 87.5t23 102q0 109 -71.5 177.5t-184.5 68.5q-133 0 -295 -107zM330 92 q-3 34 17 61t50 38t63.5 6t55.5 -29q24 -21 29 -54.5t-6.5 -63t-39 -50.5t-61.5 -18q-49 0 -78.5 30t-29.5 80z" />
<glyph unicode="@" horiz-adv-x="1990" d="M100 498q-3 194 67 365.5t192.5 293t294.5 190.5t366 66q184 3 346 -58.5t277.5 -169.5t181 -259.5t63.5 -323.5q0 -247 -110 -399q-109 -152 -287 -152q-86 0 -148 46t-81 122q-51 -81 -132.5 -124.5t-181.5 -43.5q-168 0 -278 125q-111 126 -111 322q0 193 111 319 q112 127 278 127q93 0 167 -39.5t118 -113.5l16 133h135v-609q0 -67 33 -105t92 -38q106 0 173 116t67 302q2 149 -53 279.5t-151.5 223t-233 145t-291.5 50.5q-166 2 -311.5 -57t-248.5 -163.5t-161.5 -252.5t-56.5 -317q0 -228 98.5 -408.5t276.5 -281.5t403 -101 q231 0 504 150l63 -111q-305 -164 -567 -164q-196 -3 -368 66.5t-294 191t-191.5 293t-66.5 365.5zM723 498q0 -140 73.5 -229t190.5 -89q105 0 170.5 71.5t65.5 182.5v127q0 111 -65.5 182.5t-170.5 71.5q-117 0 -190.5 -88.5t-73.5 -228.5z" />
<glyph unicode="A" horiz-adv-x="1374" d="M41 0l567 1376h158l567 -1376h-172l-151 377h-645l-152 -377h-172zM412 506h549l-275 678z" />
<glyph unicode="B" horiz-adv-x="1335" d="M205 0v1376h555q181 0 293 -100q114 -99 114 -256q0 -104 -57 -186.5t-154 -120.5q121 -35 191 -126t70 -214q0 -167 -119 -271q-117 -102 -305 -102h-588zM369 127h401q125 0 203 72.5t78 187.5t-78 187.5t-203 72.5h-401v-520zM369 762h370q116 0 190.5 69t74.5 175 t-74 174.5t-191 68.5h-370v-487z" />
<glyph unicode="C" horiz-adv-x="1323" d="M100 688q0 313 189 514q187 199 489 199q245 0 465 -152l-72 -114q-180 127 -370 127q-236 0 -381 -160q-146 -161 -146 -416q0 -253 146 -414q145 -157 381 -157q190 0 370 127l72 -115q-220 -152 -465 -152q-302 0 -489 199q-189 201 -189 514z" />
<glyph unicode="D" horiz-adv-x="1472" d="M205 0v1376h465q313 0 506 -190q194 -191 194 -498q0 -149 -51 -277t-142.5 -218.5t-222 -141.5t-284.5 -51h-465zM373 133h280q243 0 394 154q151 157 151 401q0 245 -151 399q-150 156 -394 156h-280v-1110z" />
<glyph unicode="E" horiz-adv-x="1224" d="M205 0v1376h878v-131h-710v-477h645v-127h-645v-510h743v-131h-911z" />
<glyph unicode="F" horiz-adv-x="1191" d="M205 0v1376h878v-133h-710v-524h645v-133h-645v-586h-168z" />
<glyph unicode="G" horiz-adv-x="1439" d="M100 688q0 155 51.5 287.5t142 226t220 146.5t281.5 53q240 0 481 -137l-64 -117q-219 121 -399 121q-243 0 -393 -164q-152 -166 -152 -418q0 -251 154 -416q154 -161 401 -161q171 0 318 69v410h-346v127h503v-627q-241 -113 -487 -113h-13q-195 0 -354 89 q-164 91 -256 256q-88 159 -88 355v13z" />
<glyph unicode="H" horiz-adv-x="1570" d="M205 0v1376h168v-604h823v604h170v-1376h-170v637h-823v-637h-168z" />
<glyph unicode="I" horiz-adv-x="577" d="M205 0v1376h168v-1376h-168z" />
<glyph unicode="J" horiz-adv-x="909" d="M47 10l25 135q111 -30 207 -30q115 0 185.5 70.5t70.5 185.5v1005h170v-1020q0 -167 -109 -276q-108 -105 -281 -105q-122 0 -268 35z" />
<glyph unicode="K" horiz-adv-x="1357" d="M205 0v1376h164v-727l704 727h201l-627 -643l656 -733h-203l-568 631l-163 -164v-467h-164z" />
<glyph unicode="L" horiz-adv-x="1093" d="M205 0v1376h168v-1243h667v-133h-835z" />
<glyph unicode="M" horiz-adv-x="1751" d="M205 0v1376h166l503 -688l506 688h166v-1376h-157v1143l-465 -633h-99l-463 633v-1143h-157z" />
<glyph unicode="N" horiz-adv-x="1570" d="M205 0v1376h166l837 -1143v1143h158v-1376h-166l-838 1143v-1143h-157z" />
<glyph unicode="O" horiz-adv-x="1570" d="M100 688v11q0 147 50 275q52 134 142.5 228t218.5 148q123 52 263 51h10h10q139 1 263 -51q128 -54 219 -148q90 -94 142 -228q50 -129 50 -275v-11.5v-10.5q0 -147 -50 -275q-52 -134 -142.5 -228.5t-218.5 -147.5q-123 -51 -262 -51h-10.5h-11.5q-139 0 -262 51 q-128 53 -219 148q-90 94 -142 228q-50 129 -50 275v11zM274 686q0 -249 142 -414q144 -159 368 -159q225 0 369 159q143 162 143 414q0 254 -143 416t-369 162q-225 0 -368 -162q-142 -165 -142 -416z" />
<glyph unicode="P" horiz-adv-x="1269" d="M205 0v1376h518q202 0 332 -121q129 -120 129 -311q0 -190 -131 -309q-130 -121 -330 -121h-354v-514h-164zM369 647h329q142 0 230 82q90 84 90 213q0 131 -90 215q-89 86 -230 86h-329v-596z" />
<glyph unicode="Q" horiz-adv-x="1570" d="M100 688v11q0 146 50 275q51 133 142 227.5t219 148.5q123 51 263 51h10h10q140 0 263 -51q128 -54 219 -148.5t142 -227.5q50 -129 50 -275v-11q0 -201 -83 -359.5t-232 -250.5l336 -246l-84 -106l-393 288q-104 -39 -228 -39h-11q-139 0 -262 51q-128 53 -219 147.5 t-142 228.5q-50 128 -50 275v11zM274 686q0 -249 142 -414q144 -159 368 -159q225 0 369 159q143 162 143 414q0 254 -143 416t-369 162q-225 0 -368 -162q-142 -165 -142 -416z" />
<glyph unicode="R" horiz-adv-x="1335" d="M205 0v1376h524q194 0 320 -114q125 -113 125 -297q0 -155 -96 -264.5t-251 -129.5l402 -571h-187l-378 547h-295v-547h-164zM369 680h336q135 0 219 78t84 203t-84 203.5t-219 78.5h-336v-563z" />
<glyph unicode="S" horiz-adv-x="1187" d="M104 84l41 131q261 -102 437 -102q152 0 242.5 65t90.5 174q0 60 -27.5 105.5t-74 74t-106.5 50.5t-126.5 41t-133 39.5t-126.5 50.5t-106.5 70.5t-74 103.5t-27.5 145q0 161 133 264q135 105 348 105q202 0 440 -92l-41 -131q-213 86 -387 86q-148 0 -237.5 -64 t-89.5 -168q0 -59 27.5 -103t74 -71.5t107 -49.5t127 -40.5t133 -39t127 -51.5t107 -72t74 -105.5t27.5 -147.5q0 -168 -137 -272q-135 -105 -352 -105q-221 0 -490 109z" />
<glyph unicode="T" horiz-adv-x="1224" d="M53 1243v133h1118v-133h-475v-1243h-168v1243h-475z" />
<glyph unicode="U" horiz-adv-x="1570" d="M188 526v850h168v-844q0 -185 121 -303q119 -116 307 -116q189 0 308 116q120 117 120 303v844h170v-850v-8q0 -152 -76 -276q-78 -128 -217 -199q-132 -68 -292 -68h-13h-13q-159 0 -291 68q-138 71 -216 199q-76 123 -76 272v12z" />
<glyph unicode="V" horiz-adv-x="1374" d="M41 1376h178l467 -1167l469 1167h178l-567 -1376h-158z" />
<glyph unicode="W" horiz-adv-x="2062" d="M66 1376h170l358 -1167l356 1167h160l358 -1167l357 1167h172l-441 -1376h-167l-359 1167l-356 -1167h-168z" />
<glyph unicode="X" horiz-adv-x="1390" d="M61 0l525 705l-500 671h188l420 -563l420 563h191l-502 -671l526 -705h-192l-443 596l-440 -596h-193z" />
<glyph unicode="Y" horiz-adv-x="1226" d="M25 1376h186l403 -637l402 637h188l-506 -788v-588h-170v588z" />
<glyph unicode="Z" horiz-adv-x="1286" d="M104 0v98l832 1145h-807v133h1028v-98l-831 -1145h856v-133h-1078z" />
<glyph unicode="[" horiz-adv-x="690" d="M215 -274v1728h401v-135h-249v-1458h249v-135h-401z" />
<glyph unicode="\" horiz-adv-x="786" d="M18 1427l132 43l618 -1718l-131 -43z" />
<glyph unicode="]" horiz-adv-x="690" d="M74 -139h252v1458h-252v135h403v-1728h-403v135z" />
<glyph unicode="^" horiz-adv-x="1179" d="M94 442l426 934h139l426 -934l-133 -51l-362 797l-363 -797z" />
<glyph unicode="_" horiz-adv-x="983" d="M0 -199h983v-127h-983v127z" />
<glyph unicode="`" horiz-adv-x="491" d="M-35 1356l74 106l348 -241l-63 -93z" />
<glyph unicode="a" horiz-adv-x="1099" d="M90 274q0 155 120.5 242.5t334.5 87.5q101 0 223 -29v103q0 97 -67.5 157t-176.5 60q-152 0 -329 -74l-45 119q213 80 393 80q167 0 274 -96q107 -94 107 -250v-481q0 -41 24.5 -66t65.5 -25q2 0 53 7l12 -123q-75 -11 -106 -11q-80 0 -132 44.5t-59 121.5 q-60 -78 -151.5 -122t-194.5 -44q-144 0 -248 84q-98 85 -98 215zM250 285q0 -82 64 -136.5t161 -54.5q129 0 211 83t82 216v84q-113 25 -205 25q-148 0 -230.5 -57t-82.5 -160z" />
<glyph unicode="b" d="M162 0v1442h162v-604q56 88 141 135t190 47q195 0 322 -148t127 -374q0 -227 -127 -375t-322 -148q-113 0 -202 49.5t-140 141.5l-20 -166h-131zM322 418q0 -137 82 -223t212 -86q142 0 230 108q92 112 92 281t-92 278q-88 111 -230 111q-130 0 -212 -86t-82 -223v-160z " />
<glyph unicode="c" horiz-adv-x="1007" d="M90 498q0 230 141 374q142 148 361 148q184 0 352 -113l-67 -112q-134 90 -265 90q-156 0 -256 -109q-98 -107 -98 -278q0 -174 98 -281q99 -108 256 -108q132 0 265 92l67 -113q-168 -113 -352 -113q-218 0 -361 146q-141 147 -141 377z" />
<glyph unicode="d" d="M90 498q0 226 127 374t324 148q105 0 190 -47t139 -135v604h164v-1442h-131l-20 166q-54 -92 -143 -141.5t-199 -49.5q-196 0 -324 146q-127 148 -127 377zM258 498q0 -168 90 -281q88 -108 232 -108q129 0 210.5 86t81.5 223v160q0 135 -81.5 222t-210.5 87 q-144 0 -232 -111q-90 -110 -90 -278z" />
<glyph unicode="e" horiz-adv-x="1099" d="M90 498q0 230 135 374q136 148 350 148q198 0 324 -141q127 -139 127 -363q0 -45 -2 -59h-770q9 -154 113 -258q102 -99 258 -99q142 0 301 84l51 -112q-199 -97 -369 -97q-226 0 -372 146q-146 149 -146 377zM254 561h614q-6 148 -87.5 241t-205.5 93q-134 0 -221.5 -91 t-99.5 -243z" />
<glyph unicode="f" horiz-adv-x="755" d="M53 866v129h207v181q0 129 83 209.5t216 80.5q101 0 199 -26l-23 -127q-81 20 -141 20q-75 0 -123.5 -48.5t-48.5 -123.5v-166h280v-129h-280v-866h-162v866h-207z" />
<glyph unicode="g" d="M90 498q0 226 127 374t324 148q110 0 199 -49.5t143 -141.5l20 166h131v-1013q0 -189 -139 -310q-138 -123 -352 -123q-180 0 -393 89l49 122q183 -79 331 -79q150 0 245 82t95 212v181q-54 -87 -139.5 -134t-189.5 -47q-196 0 -324 146q-127 148 -127 377zM258 498 q0 -168 90 -281q88 -108 232 -108q129 0 210.5 86t81.5 223v160q0 135 -81.5 222t-210.5 87q-144 0 -232 -111q-90 -110 -90 -278z" />
<glyph unicode="h" d="M162 0v1442h162v-621q51 94 142 146.5t206 52.5q164 0 272 -105q107 -101 107 -266v-649h-164v625q0 115 -72.5 186.5t-189.5 71.5q-128 0 -215 -90q-86 -89 -86 -232v-561h-162z" />
<glyph unicode="i" horiz-adv-x="485" d="M133 1298q0 48 31 78.5t80 30.5q47 0 77.5 -31t30.5 -78t-30.5 -77.5t-77.5 -30.5q-49 0 -80 30.5t-31 77.5zM162 0v995h162v-995h-162z" />
<glyph unicode="j" horiz-adv-x="501" d="M-158 -424l23 127q81 -20 141 -20q75 0 123.5 48.5t48.5 123.5v1140h162v-1155q0 -129 -83 -210t-216 -81q-94 0 -199 27zM150 1296q0 50 30.5 80.5t79.5 30.5q47 0 78 -31t31 -78t-31 -77.5t-78 -30.5q-49 0 -79.5 29.5t-30.5 76.5z" />
<glyph unicode="k" horiz-adv-x="1042" d="M162 0v1442h157v-940l472 493h190l-449 -465l465 -530h-192l-379 432l-107 -106v-326h-157z" />
<glyph unicode="l" horiz-adv-x="583" d="M162 215v1227h162v-1213q0 -56 31.5 -88t88.5 -32q42 0 99 14l20 -129q-93 -19 -153 -19q-115 0 -181.5 64.5t-66.5 175.5z" />
<glyph unicode="m" horiz-adv-x="1853" d="M162 0v995h131l20 -174q54 97 142 148t200 51q117 0 205 -58.5t123 -158.5q61 104 155 160.5t210 56.5q160 0 260 -100q102 -99 102 -254v-666h-164v641q0 106 -68.5 174t-174.5 68q-125 0 -205 -86t-80 -219v-578h-164v641q0 106 -69 174t-177 68q-125 0 -204.5 -85 t-79.5 -220v-578h-162z" />
<glyph unicode="n" d="M162 0v995h131l20 -182q51 98 145.5 152.5t213.5 54.5q164 0 272 -105q107 -101 107 -266v-649h-164v625q0 115 -72.5 186.5t-189.5 71.5q-128 0 -215 -90q-86 -89 -86 -232v-561h-162z" />
<glyph unicode="o" d="M90 498q0 230 141 374q145 148 367 148q221 0 363 -148q143 -143 143 -374t-143 -377t-363 -146q-221 0 -367 146q-141 147 -141 377zM258 498q0 -173 94 -283q95 -109 246 -109q149 0 244 109q96 113 96 283t-96 280q-94 111 -244 111q-152 0 -246 -111 q-94 -107 -94 -280z" />
<glyph unicode="p" d="M162 -426v1421h131l20 -166q51 92 140 141.5t202 49.5q195 0 322 -148t127 -374q0 -227 -127 -375t-322 -148q-105 0 -190 47t-141 134v-582h-162zM322 418q0 -137 82 -223t212 -86q142 0 230 108q92 112 92 281t-92 278q-88 111 -230 111q-130 0 -212 -86t-82 -223v-160 z" />
<glyph unicode="q" d="M90 498q0 226 127 374t324 148q110 0 199 -49.5t143 -141.5l20 166h131v-1421h-164v582q-54 -87 -139.5 -134t-189.5 -47q-196 0 -324 146q-127 148 -127 377zM258 498q0 -168 90 -281q88 -108 232 -108q129 0 210.5 86t81.5 223v160q0 135 -81.5 222t-210.5 87 q-144 0 -232 -111q-90 -110 -90 -278z" />
<glyph unicode="r" horiz-adv-x="784" d="M162 0v995h131l20 -188q37 94 120.5 149.5t189.5 55.5q45 0 125 -17l-19 -133q-73 15 -119 15q-129 0 -207.5 -93t-78.5 -245v-539h-162z" />
<glyph unicode="s" horiz-adv-x="919" d="M90 51l39 121q179 -72 320 -72q99 0 160 45t61 117q0 51 -31.5 86t-82 54.5t-111.5 36t-122 37t-111.5 50.5t-82 84.5t-31.5 130.5q0 123 101 199q103 80 262 80q162 0 336 -70l-37 -121q-160 66 -287 66q-96 0 -154.5 -42.5t-58.5 -111.5q0 -50 31.5 -83.5t81.5 -52.5 t111 -35t121.5 -37.5t110.5 -51.5t81.5 -86t31.5 -133q0 -128 -102 -207.5t-266 -79.5q-179 0 -371 76z" />
<glyph unicode="t" horiz-adv-x="821" d="M53 866v129h207v295h162v-295h313v-129h-313v-585q0 -75 48.5 -123.5t123.5 -48.5q60 0 141 20l23 -127q-105 -27 -199 -27q-133 0 -216 81t-83 210v600h-207z" />
<glyph unicode="u" d="M145 346v649h162v-626q0 -113 73.5 -184.5t188.5 -71.5q128 0 215 90q86 89 86 231v561h164v-995h-131l-20 182q-51 -98 -146.5 -152.5t-214.5 -54.5q-163 0 -272 103q-105 105 -105 268z" />
<glyph unicode="v" horiz-adv-x="1062" d="M47 995h170l315 -807l314 807h172l-410 -995h-151z" />
<glyph unicode="w" horiz-adv-x="1587" d="M63 995h164l246 -802l244 802h153l246 -802l244 802h166l-328 -995h-160l-243 803l-246 -803h-160z" />
<glyph unicode="x" horiz-adv-x="1062" d="M51 0l375 510l-358 485h182l282 -381l281 381h182l-358 -485l375 -510h-187l-293 406l-294 -406h-187z" />
<glyph unicode="y" horiz-adv-x="1062" d="M47 995h170l320 -807l309 807h172l-463 -1145q-61 -158 -143 -229.5t-201 -71.5q-58 0 -139 19l22 131q62 -16 101 -16q75 0 125 46t88 150l51 129z" />
<glyph unicode="z" horiz-adv-x="985" d="M90 0v92l574 774h-558v129h773v-94l-574 -774h590v-127h-805z" />
<glyph unicode="{" horiz-adv-x="690" d="M63 522v135h33q74 0 123 49.5t49 124.5q0 57 -14 158q-12 111 -12 166q0 132 86 215q90 84 221 84h67v-135h-32q-83 0 -136 -54t-53 -141q0 -37 13 -151q12 -102 12 -154q0 -85 -40 -144.5t-114 -84.5q73 -25 113.5 -86t40.5 -144q0 -51 -12 -153q-13 -110 -13 -152 q0 -87 53 -140.5t136 -53.5h32v-135h-67q-131 0 -221 84q-86 83 -86 215q0 53 12 161q14 101 14 162q0 74 -49.5 124t-122.5 50h-33z" />
<glyph unicode="|" horiz-adv-x="491" d="M176 -459v1966h139v-1966h-139z" />
<glyph unicode="}" horiz-adv-x="690" d="M74 -139h32q83 0 136 53.5t53 140.5q0 48 -12 150q-13 111 -13 155q0 83 40.5 144t113.5 86q-74 25 -114 84.5t-40 144.5q0 41 13 152q12 105 12 153q0 86 -53.5 140.5t-135.5 54.5h-32v135h69q132 0 219 -84q89 -83 89 -215q0 -56 -15 -164q-14 -101 -14 -160 q0 -74 49.5 -124t124.5 -50h33v-135h-33q-75 0 -124.5 -49.5t-49.5 -124.5q0 -56 14 -160q15 -108 15 -163q0 -132 -89 -215q-87 -84 -219 -84h-69v135z" />
<glyph unicode="~" horiz-adv-x="1179" d="M84 596q131 113 297 113q58 0 116.5 -15.5t98.5 -34t95 -34t108 -15.5q111 0 221 90l76 -116q-131 -113 -297 -113q-75 0 -215 49t-203 49q-111 0 -221 -90z" />
<glyph unicode="&#xa2;" horiz-adv-x="1179" d="M178 688q0 207 113 344q114 141 295 168v307h139v-301q158 -9 305 -108l-67 -113q-133 92 -265 92q-157 0 -256 -108q-98 -107 -98 -281q0 -173 98 -280q100 -109 256 -109q132 0 265 92l67 -112q-144 -100 -305 -109v-301h-139v307q-180 27 -295 166q-113 140 -113 346z " />
<glyph unicode="&#xa3;" horiz-adv-x="1179" d="M139 0v131h207v510h-174v127h174v256q0 168 113 272q114 105 295 105q141 0 303 -64l-43 -123q-118 50 -230 50q-121 0 -194.5 -69.5t-73.5 -182.5v-244h383v-127h-383v-510h557v-131h-934z" />
<glyph unicode="&#xa8;" horiz-adv-x="491" d="M-70 1297.5q0 43.5 29 72.5t73 29t70 -29q29 -29 29 -72.5t-29 -72.5q-26 -26 -70 -26t-73 26q-29 29 -29 72.5zM360 1297.5q0 43.5 29 72.5t73 29t70 -29q29 -29 29 -72.5t-29 -72.5q-26 -26 -70 -26t-73 26q-29 29 -29 72.5z" />
<glyph unicode="&#xa9;" horiz-adv-x="1703" d="M98 686q0 218 96 390.5t269 269.5q175 96 389 96q216 0 388 -96t269 -269q97 -177 97 -391q0 -215 -96 -386.5t-269 -268.5q-177 -97 -389 -97q-215 0 -387.5 96t-269.5 267q-97 177 -97 389zM190 688q0 -290 186 -475.5t476 -185.5t475.5 185.5t185.5 475.5 q0 192 -83.5 342.5t-235.5 235.5q-153 84 -342 84q-191 0 -344 -84q-150 -85 -234 -236t-84 -342zM451 688q0 197 118 318q118 124 308 124q154 0 294 -94l-57 -88q-107 76 -223 76q-137 0 -223 -93.5t-86 -242.5t86 -242.5t223 -93.5q116 0 223 76l57 -88 q-140 -94 -294 -94q-188 0 -308 123q-118 124 -118 319z" />
<glyph unicode="&#xab;" horiz-adv-x="1101" d="M59 473v74l406 450l98 -77l-344 -410l344 -410l-98 -80zM524 473v74l406 450l98 -77l-344 -410l344 -410l-98 -80z" />
<glyph unicode="&#xad;" horiz-adv-x="655" d="M53 446v127h549v-127h-549z" />
<glyph unicode="&#xae;" horiz-adv-x="1703" d="M98 686q0 218 96 390.5t269 269.5q175 96 389 96q216 0 388 -96t269 -269q97 -177 97 -391q0 -215 -96 -386.5t-269 -268.5q-177 -97 -389 -97q-215 0 -387.5 96t-269.5 267q-97 177 -97 389zM190 688q0 -290 186 -475.5t476 -185.5t475.5 185.5t185.5 475.5 q0 192 -83.5 342.5t-235.5 235.5q-153 84 -342 84q-191 0 -344 -84q-150 -85 -234 -236t-84 -342zM565 262v852h334q125 0 204 -72.5t79 -187.5q0 -97 -56.5 -165t-148.5 -81l233 -346h-135l-215 330h-176v-330h-119zM684 688h203q78 0 126 45t48 119q0 73 -48 117.5 t-126 44.5h-203v-326z" />
<glyph unicode="&#xb4;" horiz-adv-x="491" d="M117 1221l348 241l74 -106l-359 -228z" />
<glyph unicode="&#xb8;" horiz-adv-x="491" d="M31 -424l28 96q79 -28 144 -28q51 0 82.5 24.5t31.5 63.5q0 41 -33 64.5t-89 23.5h-23l33 180h114l-20 -115q67 -10 109.5 -57.5t42.5 -110.5q0 -78 -65.5 -128t-168.5 -50q-93 0 -186 37z" />
<glyph unicode="&#xbb;" horiz-adv-x="1101" d="M74 100l344 410l-344 410l98 77l406 -450v-74l-406 -453zM539 100l344 410l-344 410l98 77l405 -450v-74l-405 -453z" />
<glyph unicode="&#x2c6;" horiz-adv-x="491" d="M-57 1210l252 244h102l252 -244l-72 -77l-231 204l-232 -204z" />
<glyph unicode="&#x2da;" horiz-adv-x="491" d="M41 1298q0 90 57 144q58 55 148 55q92 0 147 -55q58 -55 58 -144q0 -87 -56 -143q-55 -55 -147 -55t-150 55q-57 54 -57 143zM129 1298q0 -54 32.5 -85t86.5 -31q37 -4 66 17t40.5 53t6 69.5t-30.5 62.5q-23 25 -59.5 31t-69 -6t-54.5 -42t-18 -69z" />
<glyph unicode="&#x2dc;" horiz-adv-x="491" d="M-63 1235q17 74 64 117t114 43q55 0 137 -39q84 -37 113 -37q65 0 86 76l104 -31q-14 -74 -62.5 -118t-115.5 -44q-53 0 -137 37q-79 39 -113 39q-65 0 -86 -76z" />
<glyph unicode="&#x400;" horiz-adv-x="1224" d="M205 0v1376h878v-131h-710v-477h645v-127h-645v-510h743v-131h-911zM348 1737l74 106l348 -241l-63 -93z" />
<glyph unicode="&#x401;" horiz-adv-x="1224" d="M205 0v1376h878v-131h-710v-477h645v-127h-645v-510h743v-131h-911zM313 1678.5q0 43.5 29 72.5t73 29t70 -29q29 -29 29 -72.5t-29 -72.5q-26 -26 -70 -26t-73 26q-29 29 -29 72.5zM743 1678.5q0 43.5 29 72.5t73 29t70 -29q29 -29 29 -72.5t-29 -72.5q-26 -26 -70 -26 t-73 26q-29 29 -29 72.5z" />
<glyph unicode="&#x402;" horiz-adv-x="1716" d="M53 1243v133h1118v-133h-507v-502q262 54 469 54q233 0 364 -113q133 -115 133 -297q0 -184 -131 -297q-128 -113 -344 -113q-135 0 -281 35l33 135q111 -30 230 -30q151 0 236 71t85 195q0 129 -93 203.5t-261 74.5q-192 0 -440 -51v-608h-168v1243h-443z" />
<glyph unicode="&#x403;" horiz-adv-x="1093" d="M205 0v1376h835v-133h-667v-1243h-168zM483 1602l348 241l74 -106l-358 -228z" />
<glyph unicode="&#x404;" horiz-adv-x="1339" d="M100 688q0 313 189 514q187 199 489 199q246 0 465 -148l-72 -114q-182 129 -370 129q-217 0 -361 -138q-143 -137 -164 -362h754v-127h-758q12 -238 156 -385t373 -147q188 0 370 129l72 -115q-219 -148 -465 -148q-302 0 -489 199q-189 201 -189 514z" />
<glyph unicode="&#x405;" horiz-adv-x="1187" d="M104 84l41 131q261 -102 437 -102q152 0 242.5 65t90.5 174q0 60 -27.5 105.5t-74 74t-106.5 50.5t-126.5 41t-133 39.5t-126.5 50.5t-106.5 70.5t-74 103.5t-27.5 145q0 161 133 264q135 105 348 105q202 0 440 -92l-41 -131q-213 86 -387 86q-148 0 -237.5 -64 t-89.5 -168q0 -59 27.5 -103t74 -71.5t107 -49.5t127 -40.5t133 -39t127 -51.5t107 -72t74 -105.5t27.5 -147.5q0 -168 -137 -272q-135 -105 -352 -105q-221 0 -490 109z" />
<glyph unicode="&#x406;" horiz-adv-x="577" d="M205 0v1376h168v-1376h-168z" />
<glyph unicode="&#x407;" horiz-adv-x="577" d="M-27 1678.5q0 43.5 29 72.5t73 29t70 -29q29 -29 29 -72.5t-29 -72.5q-26 -26 -70 -26t-73 26q-29 29 -29 72.5zM205 0v1376h168v-1376h-168zM403 1678.5q0 43.5 29 72.5t73 29t70 -29q29 -29 29 -72.5t-29 -72.5q-26 -26 -70 -26t-73 26q-29 29 -29 72.5z" />
<glyph unicode="&#x408;" horiz-adv-x="909" d="M47 10l25 135q111 -30 207 -30q115 0 185.5 70.5t70.5 185.5v1005h170v-1020q0 -167 -109 -276q-108 -105 -281 -105q-122 0 -268 35z" />
<glyph unicode="&#x409;" horiz-adv-x="2306" d="M20 -10l17 137q59 -12 104 -12q117 0 178.5 78.5t61.5 226.5v956h1001v-559h400q191 0 315 -115q123 -114 123 -292q0 -181 -123 -295q-124 -115 -315 -115h-557v1243h-680v-835q0 -203 -100.5 -318t-278.5 -115q-66 0 -146 15zM1382 133h381q131 0 214 77t83 200 q0 121 -83 197.5t-214 76.5h-381v-551z" />
<glyph unicode="&#x40a;" horiz-adv-x="2256" d="M205 0v1376h164v-592h807v592h157v-592h410q187 0 307 -108q121 -109 121 -283q0 -178 -121 -287q-118 -106 -307 -106h-567v653h-807v-653h-164zM1333 127h391q128 0 207.5 74t79.5 192q0 117 -80 190.5t-207 73.5h-391v-530z" />
<glyph unicode="&#x40b;" horiz-adv-x="1716" d="M53 1243v133h1118v-133h-507v-502q241 54 442 54q216 0 350 -125q135 -123 135 -318v-352h-168v340q0 141 -98 229q-101 90 -256 90q-197 0 -405 -51v-608h-168v1243h-443z" />
<glyph unicode="&#x40c;" horiz-adv-x="1357" d="M205 0v1376h164v-604h184l522 604h191l-572 -663l602 -713h-194l-543 637h-190v-637h-164zM567 1602l348 241l74 -106l-358 -228z" />
<glyph unicode="&#x40d;" horiz-adv-x="1570" d="M205 0v1376h157v-1143l838 1143h166v-1376h-158v1143l-837 -1143h-166zM504 1737l74 106l348 -241l-64 -93z" />
<glyph unicode="&#x40e;" horiz-adv-x="1302" d="M74 1376h176l422 -907l413 907h177l-535 -1145q-123 -256 -369 -256q-85 0 -190 27l29 135q80 -22 145 -22q147 0 229 168l17 36zM365 1802h108q6 -80 59.5 -129t135.5 -49q81 0 134.5 49t59.5 129h109q-4 -132 -88.5 -212.5t-214.5 -80.5t-214.5 80.5t-88.5 212.5z" />
<glyph unicode="&#x40f;" horiz-adv-x="1570" d="M205 0v1376h168v-1243h823v1243h170v-1376h-502v-360h-157v360h-502z" />
<glyph unicode="&#x410;" horiz-adv-x="1374" d="M41 0l567 1376h158l567 -1376h-172l-151 377h-645l-152 -377h-172zM412 506h549l-275 678z" />
<glyph unicode="&#x411;" horiz-adv-x="1308" d="M205 0v1376h901v-127h-737v-461h417q191 0 310 -110q121 -112 121 -283q0 -172 -121 -284q-120 -111 -310 -111h-581zM369 127h393q129 0 209 73.5t80 194.5q0 118 -80.5 192.5t-208.5 74.5h-393v-535z" />
<glyph unicode="&#x412;" horiz-adv-x="1335" d="M205 0v1376h555q181 0 293 -100q114 -99 114 -256q0 -104 -57 -186.5t-154 -120.5q121 -35 191 -126t70 -214q0 -167 -119 -271q-117 -102 -305 -102h-588zM369 127h401q125 0 203 72.5t78 187.5t-78 187.5t-203 72.5h-401v-520zM369 762h370q116 0 190.5 69t74.5 175 t-74 174.5t-191 68.5h-370v-487z" />
<glyph unicode="&#x413;" horiz-adv-x="1093" d="M205 0v1376h835v-133h-667v-1243h-168z" />
<glyph unicode="&#x414;" horiz-adv-x="1587" d="M57 133h99q170 296 170 684v559h979v-1243h196v-493h-158v360h-1128v-360h-158v493zM340 133h801v1110h-654v-438q0 -379 -147 -672z" />
<glyph unicode="&#x415;" horiz-adv-x="1224" d="M205 0v1376h878v-131h-710v-477h645v-127h-645v-510h743v-131h-911z" />
<glyph unicode="&#x416;" horiz-adv-x="2031" d="M66 0l544 711l-514 665h183l466 -604h189v604h164v-604h188l467 604h182l-514 -665l545 -711h-188l-488 637h-192v-637h-164v637h-193l-487 -637h-188z" />
<glyph unicode="&#x417;" horiz-adv-x="1105" d="M41 80l51 127q216 -94 416 -94q148 0 239 72.5t91 189.5q0 122 -101 195t-272 73h-117v123h117q157 0 249.5 69.5t92.5 182.5q0 109 -82 177.5t-215 68.5q-166 0 -385 -86l-51 127q247 96 458 96q192 0 316 -103q123 -102 123 -262q0 -119 -70.5 -207t-193.5 -120 q136 -35 216.5 -131.5t80.5 -221.5q0 -164 -134 -274q-131 -107 -338 -107q-242 0 -491 105z" />
<glyph unicode="&#x418;" horiz-adv-x="1570" d="M205 0v1376h157v-1143l838 1143h166v-1376h-158v1143l-837 -1143h-166z" />
<glyph unicode="&#x419;" horiz-adv-x="1570" d="M205 0v1376h157v-1143l838 1143h166v-1376h-158v1143l-837 -1143h-166zM473 1802h109q6 -80 59.5 -129t134.5 -49q82 0 135.5 49t59.5 129h108q-4 -132 -88.5 -212.5t-214.5 -80.5t-214.5 80.5t-88.5 212.5z" />
<glyph unicode="&#x41a;" horiz-adv-x="1357" d="M205 0v1376h164v-604h184l522 604h191l-572 -663l602 -713h-194l-543 637h-190v-637h-164z" />
<glyph unicode="&#x41b;" horiz-adv-x="1619" d="M20 -10l17 137q59 -12 104 -12q117 0 178.5 78.5t61.5 226.5v956h1034v-1376h-164v1243h-706v-835q0 -203 -100.5 -318t-278.5 -115q-66 0 -146 15z" />
<glyph unicode="&#x41c;" horiz-adv-x="1751" d="M205 0v1376h166l503 -688l506 688h166v-1376h-157v1143l-465 -633h-99l-463 633v-1143h-157z" />
<glyph unicode="&#x41d;" horiz-adv-x="1570" d="M205 0v1376h168v-604h823v604h170v-1376h-170v637h-823v-637h-168z" />
<glyph unicode="&#x41e;" horiz-adv-x="1570" d="M100 688q-2 152 49.5 285.5t142.5 228t219 148t273 51.5q145 2 273 -51.5t219 -148t142.5 -228t49.5 -285.5q2 -153 -49.5 -286.5t-142.5 -228t-219 -147.5t-273 -51q-145 -2 -273 51t-219 147.5t-142.5 228t-49.5 286.5zM274 686q0 -249 142 -414q144 -159 368 -159 q225 0 369 159q143 162 143 414q0 254 -143 416t-369 162q-225 0 -368 -162q-142 -165 -142 -416z" />
<glyph unicode="&#x41f;" horiz-adv-x="1570" d="M205 0v1376h1161v-1376h-170v1243h-823v-1243h-168z" />
<glyph unicode="&#x420;" horiz-adv-x="1269" d="M205 0v1376h518q202 0 332 -121q129 -120 129 -311q0 -190 -131 -309q-130 -121 -330 -121h-354v-514h-164zM369 647h329q142 0 230 82q90 84 90 213q0 131 -90 215q-89 86 -230 86h-329v-596z" />
<glyph unicode="&#x421;" horiz-adv-x="1323" d="M100 688q0 313 189 514q187 199 489 199q245 0 465 -152l-72 -114q-180 127 -370 127q-236 0 -381 -160q-146 -161 -146 -416q0 -253 146 -414q145 -157 381 -157q190 0 370 127l72 -115q-220 -152 -465 -152q-302 0 -489 199q-189 201 -189 514z" />
<glyph unicode="&#x422;" horiz-adv-x="1224" d="M53 1243v133h1118v-133h-475v-1243h-168v1243h-475z" />
<glyph unicode="&#x423;" horiz-adv-x="1302" d="M74 1376h176l422 -907l413 907h177l-535 -1145q-123 -256 -369 -256q-85 0 -190 27l29 135q80 -22 145 -22q147 0 229 168l17 36z" />
<glyph unicode="&#x424;" horiz-adv-x="1587" d="M84 705q0 246 174 401t457 164v172h157v-172q184 -6 327.5 -78t223.5 -198.5t80 -288.5t-80 -289t-223.5 -199t-327.5 -78v-205h-157v205q-283 9 -457 164t-174 402zM246 705q0 -185 131 -304q130 -118 338 -127v861q-206 -9 -338 -129q-131 -119 -131 -301zM872 274 q211 9 338 127q131 119 131 304q0 184 -131 303q-127 118 -338 127v-861z" />
<glyph unicode="&#x425;" horiz-adv-x="1390" d="M61 0l525 705l-500 671h188l420 -563l420 563h191l-502 -671l526 -705h-192l-443 596l-440 -596h-193z" />
<glyph unicode="&#x426;" horiz-adv-x="1646" d="M205 0v1376h168v-1243h823v1243h170v-1243h197v-493h-158v360h-1200z" />
<glyph unicode="&#x427;" horiz-adv-x="1427" d="M123 1008v368h170v-356q0 -148 98 -242t256 -94q184 0 408 51v641h170v-1376h-170v602q-236 -53 -445 -53q-214 0 -352 129q-135 129 -135 330z" />
<glyph unicode="&#x428;" horiz-adv-x="2240" d="M205 0v1376h168v-1243h663v1243h168v-1243h662v1243h170v-1376h-1831z" />
<glyph unicode="&#x429;" horiz-adv-x="2318" d="M205 0v1376h168v-1243h663v1243h168v-1243h662v1243h170v-1243h196v-493h-164v360h-1863z" />
<glyph unicode="&#x42a;" horiz-adv-x="1564" d="M53 1243v133h578v-559h409q190 0 314 -115q125 -113 125 -292q0 -182 -125 -295q-124 -115 -314 -115h-573v1243h-414zM631 133h385q131 0 214 77t83 200q0 121 -83 197.5t-214 76.5h-385v-551z" />
<glyph unicode="&#x42b;" horiz-adv-x="1880" d="M205 0v1376h164v-559h409q190 0 314 -115q125 -113 125 -292q0 -182 -125 -295q-124 -115 -314 -115h-573zM369 133h385q131 0 214 77t83 200q0 121 -83 197.5t-214 76.5h-385v-551zM1507 0v1376h168v-1376h-168z" />
<glyph unicode="&#x42c;" horiz-adv-x="1302" d="M205 0v1376h164v-559h409q190 0 314 -115q125 -113 125 -292q0 -182 -125 -295q-124 -115 -314 -115h-573zM369 133h385q131 0 214 77t83 200q0 121 -83 197.5t-214 76.5h-385v-551z" />
<glyph unicode="&#x42d;" horiz-adv-x="1339" d="M96 123l70 115q182 -129 373 -129q226 0 370 147q147 150 156 385h-756v127h754q-21 225 -164 362q-144 138 -360 138q-191 0 -373 -129l-70 114q216 148 463 148q301 0 488 -199q190 -199 190 -514t-190 -514q-187 -199 -488 -199q-247 0 -463 148z" />
<glyph unicode="&#x42e;" horiz-adv-x="2131" d="M205 0v1376h168v-602h313q27 278 211 453q183 174 457 174q296 0 485 -201q191 -200 191 -512q0 -314 -191 -514q-187 -199 -485 -199q-278 0 -467 183q-188 185 -203 477h-311v-635h-168zM848 688q0 -252 143.5 -413.5t362.5 -161.5q223 0 364 159q142 165 142 414 q0 251 -142 416q-140 162 -364 162q-220 0 -363 -162t-143 -414z" />
<glyph unicode="&#x42f;" horiz-adv-x="1335" d="M106 0l402 571q-155 20 -250.5 129t-95.5 265q0 184 125 297q126 114 319 114h524v-1376h-163v547h-297l-377 -547h-187zM328 961q0 -124 84.5 -202.5t218.5 -78.5h336v563h-336q-134 0 -218.5 -79t-84.5 -203z" />
<glyph unicode="&#x430;" horiz-adv-x="1116" d="M90 274q0 155 120.5 242.5t334.5 87.5q101 0 223 -29v103q0 97 -67.5 157t-176.5 60q-152 0 -329 -74l-45 119q213 80 393 80q167 0 274 -96q107 -94 107 -250v-481q0 -41 24.5 -66t65.5 -25q2 0 53 7l12 -123q-75 -11 -106 -11q-80 0 -132 44.5t-59 121.5 q-60 -78 -151.5 -122t-194.5 -44q-144 0 -248 84q-98 85 -98 215zM250 285q0 -82 64 -136.5t161 -54.5q129 0 211 83t82 216v84q-113 25 -205 25q-148 0 -230.5 -57t-82.5 -160z" />
<glyph unicode="&#x431;" d="M106 592q0 661 519 799l321 86l31 -127l-322 -88q-313 -84 -376 -441q60 97 154.5 148t215.5 51q197 0 326 -141t129 -359q0 -244 -137 -393q-140 -152 -353 -152q-230 0 -368 166q-140 172 -140 451zM270 522q0 -179 95 -297q94 -116 243 -116t242 112q96 116 96 289 q0 166 -94 270q-92 105 -238 105q-152 0 -247 -103q-97 -105 -97 -260z" />
<glyph unicode="&#x432;" horiz-adv-x="1017" d="M162 0v995h426q135 0 220 -73t85 -191q0 -73 -37.5 -129.5t-103.5 -85.5q84 -26 130 -90.5t46 -153.5q0 -121 -90 -196.5t-230 -75.5h-446zM313 117h275q84 0 135 47t51 123q0 78 -50.5 125t-135.5 47h-275v-342zM313 557h258q76 0 123 43.5t47 114.5q0 72 -48 118 t-122 46h-258v-322z" />
<glyph unicode="&#x433;" horiz-adv-x="886" d="M162 0v995h655v-129h-493v-866h-162z" />
<glyph unicode="&#x434;" d="M57 127h66q108 191 108 465v403h758v-868h131v-455h-151v328h-760v-328h-152v455zM289 127h555v739h-465v-284q0 -261 -90 -455z" />
<glyph unicode="&#x435;" horiz-adv-x="1099" d="M90 498q0 230 135 374q136 148 350 148q198 0 324 -141q127 -139 127 -363q0 -45 -2 -59h-770q9 -154 113 -258q102 -99 258 -99q142 0 301 84l51 -112q-199 -97 -369 -97q-226 0 -372 146q-146 149 -146 377zM254 561h614q-6 148 -87.5 241t-205.5 93q-134 0 -221.5 -91 t-99.5 -243z" />
<glyph unicode="&#x436;" horiz-adv-x="1546" d="M63 0l379 514l-356 481h170l315 -422h125v422h152v-422h125l317 422h170l-356 -481l379 -514h-174l-332 446h-129v-446h-152v446h-127l-331 -446h-175z" />
<glyph unicode="&#x437;" horiz-adv-x="886" d="M47 63l49 117q162 -78 312 -78q102 0 165.5 48t63.5 124q0 79 -70 131t-184 52h-94v104h94q102 0 165.5 47t63.5 121t-54.5 118t-147.5 44q-134 0 -289 -70l-49 119q195 80 356 80q155 0 248.5 -74.5t93.5 -197.5q0 -83 -49.5 -148t-134.5 -88q96 -24 153.5 -94.5 t57.5 -159.5q0 -125 -103 -205q-104 -78 -266 -78q-180 0 -381 88z" />
<glyph unicode="&#x438;" d="M162 0v995h151v-774l564 774h157v-995h-151v774l-566 -774h-155z" />
<glyph unicode="&#x439;" d="M162 0v995h151v-774l564 774h157v-995h-151v774l-566 -774h-155zM287 1421h108q6 -80 59.5 -129t135.5 -49q81 0 134.5 49t59.5 129h109q-4 -132 -88.5 -212.5t-214.5 -80.5t-214.5 80.5t-88.5 212.5z" />
<glyph unicode="&#x43a;" horiz-adv-x="1042" d="M162 0v995h157v-422h119l355 422h176l-400 -481l422 -514h-182l-369 446h-121v-446h-157z" />
<glyph unicode="&#x43b;" horiz-adv-x="1226" d="M37 -14l16 131q36 -8 72 -8q78 0 120 53t42 153v680h780v-995h-158v866h-465v-563q0 -153 -78.5 -240.5t-215.5 -87.5q-45 0 -113 11z" />
<glyph unicode="&#x43c;" horiz-adv-x="1325" d="M162 0v995h155l342 -467l349 467h157v-995h-151v774l-312 -414h-86l-303 414v-774h-151z" />
<glyph unicode="&#x43d;" d="M162 0v995h162v-424h546v424h164v-995h-164v442h-546v-442h-162z" />
<glyph unicode="&#x43e;" d="M90 498q0 230 141 374q145 148 367 148q221 0 363 -148q143 -143 143 -374t-143 -377t-363 -146q-221 0 -367 146q-141 147 -141 377zM258 498q0 -173 94 -283q95 -109 246 -109q149 0 244 109q96 113 96 283t-96 280q-94 111 -244 111q-152 0 -246 -111 q-94 -107 -94 -280z" />
<glyph unicode="&#x43f;" d="M162 0v995h872v-995h-164v866h-546v-866h-162z" />
<glyph unicode="&#x440;" d="M162 -426v1421h131l20 -166q51 92 140 141.5t202 49.5q195 0 322 -148t127 -374q0 -227 -127 -375t-322 -148q-105 0 -190 47t-141 134v-582h-162zM322 418q0 -137 82 -223t212 -86q142 0 230 108q92 112 92 281t-92 278q-88 111 -230 111q-130 0 -212 -86t-82 -223v-160 z" />
<glyph unicode="&#x441;" horiz-adv-x="1007" d="M90 498q0 230 141 374q142 148 361 148q184 0 352 -113l-67 -112q-134 90 -265 90q-156 0 -256 -109q-98 -107 -98 -278q0 -174 98 -281q99 -108 256 -108q132 0 265 92l67 -113q-168 -113 -352 -113q-218 0 -361 146q-141 147 -141 377z" />
<glyph unicode="&#x442;" horiz-adv-x="942" d="M53 866v129h834v-129h-334v-866h-164v866h-336z" />
<glyph unicode="&#x443;" horiz-adv-x="1062" d="M47 995h170l320 -807l309 807h172l-463 -1145q-61 -158 -143 -229.5t-201 -71.5q-58 0 -139 19l22 131q62 -16 101 -16q75 0 125 46t88 150l51 129z" />
<glyph unicode="&#x444;" horiz-adv-x="1402" d="M90 498q0 211 148 356t387 160v428h153v-428q239 -15 387 -160t148 -356q0 -212 -148 -357q-147 -141 -387 -159v-408h-153v408q-240 18 -387 159q-148 145 -148 357zM242 498q0 -161 106 -267t277 -118v770q-168 -12 -277 -121q-106 -106 -106 -264zM778 115 q170 12 277 116q106 106 106 267q0 159 -106 262q-106 106 -277 121v-766z" />
<glyph unicode="&#x445;" horiz-adv-x="1062" d="M51 0l375 510l-358 485h182l282 -381l281 381h182l-358 -485l375 -510h-187l-293 406l-294 -406h-187z" />
<glyph unicode="&#x446;" horiz-adv-x="1239" d="M162 0v995h162v-868h546v868h164v-868h131v-455h-151v328h-852z" />
<glyph unicode="&#x447;" horiz-adv-x="1095" d="M106 725v270h164v-258q0 -98 65 -159.5t165 -61.5q127 0 272 29v450h164v-995h-164v418q-143 -33 -311 -33q-155 0 -256 94q-99 95 -99 246z" />
<glyph unicode="&#x448;" horiz-adv-x="1738" d="M162 0v995h162v-868h464v868h164v-868h463v868h164v-995h-1417z" />
<glyph unicode="&#x449;" horiz-adv-x="1783" d="M162 0v995h162v-868h464v868h164v-868h463v868h164v-868h131v-455h-151v328h-1397z" />
<glyph unicode="&#x44a;" d="M53 868v127h434v-385h306q143 0 235 -85t92 -220t-91 -220t-234 -85h-459v868h-283zM487 123h283q87 0 141 50.5t54 131.5q0 82 -54.5 132t-142.5 50h-281v-364z" />
<glyph unicode="&#x44b;" horiz-adv-x="1499" d="M162 0v995h151v-385h303q143 0 235.5 -85.5t92.5 -219.5q0 -135 -91.5 -220t-234.5 -85h-456zM313 123h281q88 0 142.5 50t54.5 132q0 80 -55 131t-142 51h-281v-364zM1180 0v995h157v-995h-157z" />
<glyph unicode="&#x44c;" horiz-adv-x="1017" d="M162 0v995h151v-385h303q143 0 235.5 -85.5t92.5 -219.5q0 -135 -91.5 -220t-234.5 -85h-456zM313 123h281q88 0 142.5 50t54.5 132q0 80 -55 131t-142 51h-281v-364z" />
<glyph unicode="&#x44d;" horiz-adv-x="1030" d="M84 88l66 102q134 -90 268 -90q147 0 246 99t108 254h-522v110h518q-13 147 -111 239.5t-239 92.5q-134 0 -268 -90l-66 102q168 113 354 113q217 0 359 -148q141 -144 141 -374t-141 -377q-143 -146 -359 -146q-186 0 -354 113z" />
<glyph unicode="&#x44e;" horiz-adv-x="1646" d="M162 0v995h162v-424h260q21 196 155 324q131 125 328 125q211 0 350 -148q139 -145 139 -374t-139 -377q-140 -146 -350 -146q-202 0 -334 129q-134 131 -149 338h-260v-442h-162zM739 498q0 -170 90 -283q92 -109 238 -109q144 0 233 109q93 113 93 283t-93 280 q-88 111 -233 111q-147 0 -238 -111q-90 -110 -90 -280z" />
<glyph unicode="&#x44f;" horiz-adv-x="1042" d="M78 0l278 401q-106 19 -171.5 97.5t-65.5 187.5q0 137 92.5 223t239.5 86h430v-995h-152v375h-221l-258 -375h-172zM274 686q0 -86 55.5 -137t147.5 -51h252v374h-252q-92 0 -147.5 -52t-55.5 -134z" />
<glyph unicode="&#x450;" horiz-adv-x="1099" d="M90 498q0 230 135 374q136 148 350 148q198 0 324 -141q127 -139 127 -363q0 -45 -2 -59h-770q9 -154 113 -258q102 -99 258 -99q142 0 301 84l51 -112q-199 -97 -369 -97q-226 0 -372 146q-146 149 -146 377zM254 561h614q-6 148 -87.5 241t-205.5 93q-134 0 -221.5 -91 t-99.5 -243zM295 1356l74 106l348 -241l-64 -93z" />
<glyph unicode="&#x451;" horiz-adv-x="1099" d="M90 498q0 230 135 374q136 148 350 148q198 0 324 -141q127 -139 127 -363q0 -45 -2 -59h-770q9 -154 113 -258q102 -99 258 -99q142 0 301 84l51 -112q-199 -97 -369 -97q-226 0 -372 146q-146 149 -146 377zM254 561h614q-6 148 -87.5 241t-205.5 93q-134 0 -221.5 -91 t-99.5 -243zM261 1297.5q0 43.5 26 72.5q29 29 72.5 29t72.5 -29t29 -72.5t-29 -72.5q-29 -26 -72.5 -26t-72.5 26q-26 29 -26 72.5zM690 1297.5q0 43.5 29 72.5t73 29t70 -29q29 -29 29 -72.5t-29 -72.5q-26 -26 -70 -26t-73 26q-29 29 -29 72.5z" />
<glyph unicode="&#x452;" d="M20 1165v115h142v162h162v-162h358v-115h-358v-342q51 94 142 145.5t206 51.5q164 0 272 -105q107 -104 107 -270v-805q0 -129 -83 -210t-216 -81q-93 0 -201 27l22 127q79 -20 142 -20q77 0 124.5 48t47.5 124v766q0 117 -72.5 189.5t-189.5 72.5q-132 0 -217 -88 q-84 -90 -84 -224v-571h-162v1165h-142z" />
<glyph unicode="&#x453;" horiz-adv-x="886" d="M162 0v995h655v-129h-493v-866h-162zM326 1221l348 241l74 -106l-359 -228z" />
<glyph unicode="&#x454;" horiz-adv-x="1030" d="M90 498q0 230 141 374q142 148 361 148q184 0 352 -113l-65 -102q-134 90 -267 90q-142 0 -238.5 -91t-113.5 -241h518v-110h-520q9 -154 109 -254q99 -99 245 -99q133 0 267 90l65 -102q-168 -113 -352 -113q-218 0 -361 146q-141 147 -141 377z" />
<glyph unicode="&#x455;" horiz-adv-x="919" d="M90 51l39 121q179 -72 320 -72q99 0 160 45t61 117q0 51 -31.5 86t-82 54.5t-111.5 36t-122 37t-111.5 50.5t-82 84.5t-31.5 130.5q0 123 101 199q103 80 262 80q162 0 336 -70l-37 -121q-160 66 -287 66q-96 0 -154.5 -42.5t-58.5 -111.5q0 -50 31.5 -83.5t81.5 -52.5 t111 -35t121.5 -37.5t110.5 -51.5t81.5 -86t31.5 -133q0 -128 -102 -207.5t-266 -79.5q-179 0 -371 76z" />
<glyph unicode="&#x456;" horiz-adv-x="485" d="M133 1298q0 48 31 78.5t80 30.5q47 0 77.5 -31t30.5 -78t-30.5 -77.5t-77.5 -30.5q-49 0 -80 30.5t-31 77.5zM162 0v995h162v-995h-162z" />
<glyph unicode="&#x457;" horiz-adv-x="485" d="M-72 1297.5q0 43.5 29 72.5t73 29t70 -29q29 -29 29 -72.5t-29 -72.5q-26 -26 -70 -26t-73 26q-29 29 -29 72.5zM162 0v995h162v-995h-162zM358 1297.5q0 43.5 29 72.5t73 29t70 -29q29 -29 29 -72.5t-29 -72.5q-26 -26 -70 -26t-73 26q-29 29 -29 72.5z" />
<glyph unicode="&#x458;" horiz-adv-x="501" d="M-158 -424l23 127q81 -20 141 -20q75 0 123.5 48.5t48.5 123.5v1140h162v-1155q0 -129 -83 -210t-216 -81q-94 0 -199 27zM150 1296q0 50 30.5 80.5t79.5 30.5q47 0 78 -31t31 -78t-31 -77.5t-78 -30.5q-49 0 -79.5 29.5t-30.5 76.5z" />
<glyph unicode="&#x459;" horiz-adv-x="1734" d="M37 -14l16 131q36 -8 72 -8q78 0 120 53t42 153v680h757v-385h287q143 0 235.5 -85.5t92.5 -219.5q0 -135 -91.5 -220t-234.5 -85h-440v866h-449v-563q0 -153 -78.5 -240.5t-215.5 -87.5q-45 0 -113 11zM1044 123h265q88 0 142 50t54 132q0 80 -54.5 131t-141.5 51h-265 v-364z" />
<glyph unicode="&#x45a;" horiz-adv-x="1701" d="M162 0v995h157v-407h541v407h152v-407h299q137 0 226 -81.5t89 -211.5q0 -131 -88 -213t-227 -82h-451v467h-541v-467h-157zM1012 117h270q86 0 138.5 49t52.5 129q0 78 -53.5 127t-139.5 49h-268v-354z" />
<glyph unicode="&#x45b;" d="M20 1165v115h142v162h162v-162h358v-115h-358v-344q51 94 142 146.5t206 52.5q164 0 272 -105q107 -101 107 -266v-649h-164v625q0 115 -72.5 186.5t-189.5 71.5q-128 0 -215 -90q-86 -89 -86 -232v-561h-162v1165h-142z" />
<glyph unicode="&#x45c;" horiz-adv-x="1042" d="M162 0v995h157v-422h119l355 422h176l-400 -481l422 -514h-182l-369 446h-121v-446h-157zM393 1221l348 241l74 -106l-358 -228z" />
<glyph unicode="&#x45d;" d="M162 0v995h151v-774l564 774h157v-995h-151v774l-566 -774h-155zM317 1356l74 106l348 -241l-63 -93z" />
<glyph unicode="&#x45e;" horiz-adv-x="1062" d="M47 995h170l320 -807l309 807h172l-463 -1145q-61 -158 -143 -229.5t-201 -71.5q-58 0 -139 19l22 131q62 -16 101 -16q75 0 125 46t88 150l51 129zM229 1421h109q6 -80 59.5 -129t134.5 -49q82 0 135.5 49t59.5 129h109q-4 -132 -89 -212.5t-215 -80.5t-214.5 80.5 t-88.5 212.5z" />
<glyph unicode="&#x45f;" d="M162 0v995h162v-868h546v868h164v-995h-360v-328h-152v328h-360z" />
<glyph unicode="&#x490;" horiz-adv-x="1093" d="M205 0v1376h678v328h157v-461h-667v-1243h-168z" />
<glyph unicode="&#x491;" horiz-adv-x="886" d="M162 0v995h502v328h153v-457h-493v-866h-162z" />
<glyph unicode="&#x492;" horiz-adv-x="1126" d="M53 588v129h185v659h835v-133h-667v-526h395v-129h-395v-588h-168v588h-185z" />
<glyph unicode="&#x493;" horiz-adv-x="903" d="M27 410v122h151v463h656v-127h-494v-336h270v-122h-270v-410h-162v410h-151z" />
<glyph unicode="&#x49a;" horiz-adv-x="1445" d="M205 0v1376h164v-604h184l522 604h191l-572 -663l502 -580h193v-493h-158v360h-129l-543 637h-190v-637h-164z" />
<glyph unicode="&#x49b;" horiz-adv-x="1114" d="M162 0v995h157v-422h119l355 422h176l-398 -477l332 -391h154v-455h-154v328h-94l-367 446h-123v-446h-157z" />
<glyph unicode="&#x4a2;" horiz-adv-x="1646" d="M205 0v1376h168v-604h823v604h170v-1243h197v-493h-158v360h-209v637h-823v-637h-168z" />
<glyph unicode="&#x4a3;" horiz-adv-x="1239" d="M162 0v995h162v-424h546v424h164v-868h131v-455h-151v328h-144v442h-546v-442h-162z" />
<glyph unicode="&#x4ae;" horiz-adv-x="1226" d="M25 1376h186l403 -637l402 637h188l-506 -788v-588h-170v588z" />
<glyph unicode="&#x4af;" horiz-adv-x="1062" d="M47 995h170l315 -800l314 800h172l-404 -981v-440h-163v440z" />
<glyph unicode="&#x4b0;" horiz-adv-x="1226" d="M25 1376h186l403 -637l402 637h188l-461 -712h267v-136h-312v-528h-170v528h-311v136h266z" />
<glyph unicode="&#x4b1;" horiz-adv-x="1062" d="M47 995h170l315 -800l314 800h172l-377 -909h254v-115h-281v-397h-163v397h-283v115h254z" />
<glyph unicode="&#x4ba;" horiz-adv-x="1427" d="M205 0v1376h168v-602q236 53 444 53q215 0 350 -129q138 -126 138 -329v-369h-170v356q0 148 -99 242q-98 94 -254 94q-179 0 -409 -51v-641h-168z" />
<glyph unicode="&#x4bb;" d="M162 0v1442h162v-621q51 94 142 146.5t206 52.5q164 0 272 -105q107 -101 107 -266v-649h-164v625q0 115 -72.5 186.5t-189.5 71.5q-128 0 -215 -90q-86 -89 -86 -232v-561h-162z" />
<glyph unicode="&#x4d8;" horiz-adv-x="1449" d="M76 657q0 10 4 72h1096q-9 239 -162 389q-150 150 -385 150q-198 0 -420 -115l-59 119q249 129 495 129q149 2 280.5 -50.5t225 -146.5t146.5 -228t51 -288q2 -153 -47 -286.5t-136 -228t-210 -147.5t-263 -51q-267 0 -444 189q-172 190 -172 493zM244 614 q3 -225 129 -366q127 -139 319 -139q203 0 334 137q135 141 150 368h-932z" />
<glyph unicode="&#x4d9;" horiz-adv-x="1099" d="M74 479q0 5 1 29t1 29h770q-9 159 -111 258q-100 100 -260 100q-133 0 -299 -84l-53 113q194 96 371 96q225 0 370 -148q146 -146 146 -374q0 -229 -136 -377q-137 -146 -348 -146q-199 0 -327 140q-125 140 -125 364zM231 432q5 -148 86.5 -240t208.5 -92 q131 0 220.5 92t99.5 240h-615z" />
<glyph unicode="&#x4e8;" horiz-adv-x="1570" d="M100 688q0 206 87 369t243 254q159 90 352 90q198 0 355 -90t243 -254q88 -163 88 -369q0 -207 -86.5 -369t-244.5 -253q-160 -91 -355 -91q-196 0 -352 90t-244 252q-86 164 -86 371zM266 643q12 -237 156 -387t362 -150q219 0 363 150t156 387h-1037zM270 766h1028 q-21 226 -163 362q-142 142 -353 142q-208 0 -350 -142q-141 -138 -162 -362z" />
<glyph unicode="&#x4e9;" d="M90 498q0 230 141 374q145 148 367 148q221 0 363 -148q143 -143 143 -374t-143 -377t-363 -146q-221 0 -367 146q-141 147 -141 377zM246 453q9 -155 106 -260q99 -99 246 -99q146 0 242.5 99.5t107.5 259.5h-702zM248 557h698q-13 153 -110 248.5t-238 95.5 q-143 0 -240 -95t-110 -249z" />
<glyph unicode="&#x2000;" horiz-adv-x="921" />
<glyph unicode="&#x2001;" horiz-adv-x="1843" />
<glyph unicode="&#x2002;" horiz-adv-x="921" />
<glyph unicode="&#x2003;" horiz-adv-x="1843" />
<glyph unicode="&#x2004;" horiz-adv-x="614" />
<glyph unicode="&#x2005;" horiz-adv-x="460" />
<glyph unicode="&#x2006;" horiz-adv-x="307" />
<glyph unicode="&#x2007;" horiz-adv-x="307" />
<glyph unicode="&#x2008;" horiz-adv-x="230" />
<glyph unicode="&#x2009;" horiz-adv-x="368" />
<glyph unicode="&#x200a;" horiz-adv-x="102" />
<glyph unicode="&#x2010;" horiz-adv-x="655" d="M53 446v127h549v-127h-549z" />
<glyph unicode="&#x2011;" horiz-adv-x="655" d="M53 446v127h549v-127h-549z" />
<glyph unicode="&#x2012;" horiz-adv-x="655" d="M53 446v127h549v-127h-549z" />
<glyph unicode="&#x2013;" horiz-adv-x="983" d="M53 446v127h877v-127h-877z" />
<glyph unicode="&#x2014;" horiz-adv-x="1966" d="M53 446v127h1860v-127h-1860z" />
<glyph unicode="&#x2018;" horiz-adv-x="505" d="M131 1024q0 112 59.5 212t165.5 169l52 -70q-141 -111 -150 -248q45 2 78 -29t33 -77q0 -49 -32.5 -82t-82.5 -33q-56 0 -89.5 43t-33.5 115z" />
<glyph unicode="&#x2019;" horiz-adv-x="505" d="M98 930q141 108 150 248q-44 -2 -76.5 29t-32.5 75q0 51 32 83t83 32q55 0 88 -43t33 -115q0 -112 -59 -210.5t-166 -168.5z" />
<glyph unicode="&#x201a;" horiz-adv-x="440" d="M98 -258q141 108 150 248q-45 -2 -77 28t-32 76q0 51 32 83t83 32q55 0 88 -43t33 -115q0 -112 -59 -210.5t-166 -168.5z" />
<glyph unicode="&#x201c;" horiz-adv-x="905" d="M131 1024q0 112 59.5 212t165.5 169l52 -70q-141 -111 -150 -248q45 2 78 -29t33 -77q0 -49 -32.5 -82t-82.5 -33q-56 0 -89.5 43t-33.5 115zM530 1024q0 112 59.5 212t166.5 169l51 -70q-141 -111 -150 -248q45 2 78 -29t33 -77q0 -49 -33 -82t-82 -33q-56 0 -89.5 43 t-33.5 115z" />
<glyph unicode="&#x201d;" horiz-adv-x="905" d="M98 930q141 108 150 248q-44 -2 -76.5 29t-32.5 75q0 51 32 83t83 32q55 0 88 -43t33 -115q0 -112 -59 -210.5t-166 -168.5zM498 930q140 107 149 248q-47 -1 -77.5 29t-30.5 75q0 51 31.5 83t82.5 32q55 0 88 -43t33 -115q0 -112 -59 -210.5t-166 -168.5z" />
<glyph unicode="&#x201e;" horiz-adv-x="905" d="M98 -258q141 108 150 248q-45 -2 -77 28t-32 76q0 51 32 83t83 32q55 0 88 -43t33 -115q0 -112 -59 -210.5t-166 -168.5zM498 -258q140 107 149 248q-47 -2 -77.5 27.5t-30.5 76.5q0 51 31.5 83t82.5 32q55 0 88 -43t33 -115q0 -112 -59 -210.5t-166 -168.5z" />
<glyph unicode="&#x2022;" horiz-adv-x="983" d="M197 590q0 123 86 209t209 86q122 0 208 -86t86 -209t-86 -209t-208 -86q-123 0 -209 86t-86 209z" />
<glyph unicode="&#x2026;" horiz-adv-x="1966" d="M213 94q0 51 32 83t83 32t82.5 -32t31.5 -83q0 -50 -31.5 -81t-82.5 -31t-83 30.5t-32 81.5zM868 94q0 51 32 83t83 32q50 0 82.5 -32t32.5 -83q0 -49 -32.5 -80.5t-82.5 -31.5q-51 0 -83 30.5t-32 81.5zM1524 94q0 51 31.5 83t82.5 32q50 0 82.5 -32t32.5 -83 q0 -49 -32.5 -80.5t-82.5 -31.5q-51 0 -82.5 30.5t-31.5 81.5z" />
<glyph unicode="&#x202f;" horiz-adv-x="368" />
<glyph unicode="&#x2039;" horiz-adv-x="636" d="M59 473v74l406 450l98 -77l-344 -410l344 -410l-98 -80z" />
<glyph unicode="&#x203a;" horiz-adv-x="636" d="M74 100l344 410l-344 410l98 77l406 -450v-74l-406 -453z" />
<glyph unicode="&#x205f;" horiz-adv-x="460" />
<glyph unicode="&#x20ac;" horiz-adv-x="1179" d="M70 506v102h143q-2 18 -2 80q0 63 4 113h-145v102h166q53 233 198 363q150 135 352 135q187 0 359 -96l-64 -113q-141 78 -276 78q-147 0 -256.5 -100t-147.5 -267h502v-102h-530q-4 -50 -4 -113q0 -62 2 -80h532v-102h-510q32 -184 143 -292t269 -108q135 0 276 78 l64 -112q-174 -97 -359 -97q-212 0 -362 144q-151 145 -197 387h-157z" />
<glyph unicode="&#x2122;" horiz-adv-x="1929" d="M49 1276v100h703v-100h-287v-752h-127v752h-289zM942 524v852h125l299 -405l297 405h127v-852h-119v678l-268 -368h-76l-270 368v-678h-115z" />
<glyph unicode="&#x25fc;" horiz-adv-x="993" d="M0 0v993h993v-993h-993z" />
</font>
</defs>
</svg>
